<svg width="31" height="31" viewBox="0 0 31 31" fill="none" xmlns="http://www.w3.org/2000/svg">
<path fill-rule="evenodd" clip-rule="evenodd" d="M3.62147 10.7897C3.25961 14.1517 3.27574 18.0293 3.77926 21.3777C4.05787 23.2305 5.56999 24.6509 7.43654 24.8131L9.38725 24.9827C13.4548 25.3363 17.5453 25.3363 21.6128 24.9827L23.5635 24.8131C25.4301 24.6509 26.9422 23.2305 27.2208 21.3777C27.7243 18.0293 27.7405 14.152 27.3786 10.7899C27.3319 10.4001 27.2792 10.0108 27.2208 9.62225C26.9422 7.76949 25.4301 6.34912 23.5635 6.18686L21.6128 6.01729C17.5453 5.66371 13.4548 5.66371 9.38725 6.01729L7.43654 6.18686C5.56999 6.34912 4.05787 7.76949 3.77926 9.62225C3.72084 10.0108 3.66824 10.4 3.62147 10.7897ZM9.55504 7.94751C13.5109 7.60364 17.4892 7.60364 21.445 7.94751L23.3957 8.11708C24.3701 8.20178 25.1594 8.94322 25.3048 9.91036C25.32 10.0108 25.3346 10.1113 25.3489 10.2118L18.166 14.2023C16.508 15.1234 14.492 15.1234 12.834 14.2023L5.65113 10.2119C5.66542 10.1113 5.68012 10.0108 5.69522 9.91036C5.84066 8.94322 6.62998 8.20178 7.60433 8.11708L9.55504 7.94751ZM25.586 12.2965C25.8366 15.2257 25.7428 18.177 25.3048 21.0896C25.1594 22.0568 24.3701 22.7982 23.3957 22.8829L21.445 23.0525C17.4892 23.3963 13.5109 23.3963 9.55505 23.0525L7.60433 22.8829C6.62999 22.7982 5.84066 22.0568 5.69522 21.0896C5.25723 18.177 5.16351 15.2257 5.41405 12.2966L11.8931 15.896C14.1362 17.1422 16.8638 17.1422 19.1069 15.896L25.586 12.2965Z" fill="#F95738"/>
</svg>
