<svg width="17" height="25" viewBox="0 0 17 25" fill="none" xmlns="http://www.w3.org/2000/svg">
<path fill-rule="evenodd" clip-rule="evenodd" d="M4.28843 1.13751C6.94148 -0.404026 10.2025 -0.377083 12.8307 1.20809C15.433 2.82556 17.0146 5.71225 16.9999 8.81752C16.9393 11.9024 15.2434 14.8022 13.1234 17.0439C11.8999 18.3436 10.5311 19.4928 9.04508 20.4682C8.89203 20.5567 8.72439 20.6159 8.55042 20.643C8.38299 20.6359 8.21993 20.5864 8.07596 20.499C5.80727 19.0335 3.81693 17.1629 2.2007 14.977C0.848291 13.1524 0.0799438 10.9481 1.41068e-06 8.66327C-0.00175426 5.55204 1.63537 2.67906 4.28843 1.13751ZM5.82195 9.951C6.26823 11.0512 7.32162 11.7689 8.49028 11.7689C9.2559 11.7744 9.99186 11.4677 10.5342 10.9172C11.0765 10.3667 11.3802 9.61812 11.3774 8.83823C11.3815 7.6478 10.6807 6.57228 9.60216 6.11383C8.52364 5.65539 7.28017 5.90446 6.45235 6.74475C5.62454 7.58503 5.37567 8.85079 5.82195 9.951Z" fill="#F95738"/>
<ellipse opacity="0.4" cx="8.49944" cy="23.0714" rx="6.07146" ry="1.21429" fill="#F95738"/>
</svg>
