<svg width="37" height="37" viewBox="0 0 37 37" fill="none" xmlns="http://www.w3.org/2000/svg">
<path fill-rule="evenodd" clip-rule="evenodd" d="M11.9479 11.5625C11.9479 7.94387 14.8814 5.01041 18.5 5.01041C22.1186 5.01041 25.0521 7.94387 25.0521 11.5625C25.0521 15.1811 22.1186 18.1146 18.5 18.1146C14.8814 18.1146 11.9479 15.1811 11.9479 11.5625ZM18.5 7.32291C16.1585 7.32291 14.2604 9.22103 14.2604 11.5625C14.2604 13.9039 16.1585 15.8021 18.5 15.8021C20.8414 15.8021 22.7396 13.9039 22.7396 11.5625C22.7396 9.22103 20.8414 7.32291 18.5 7.32291Z" fill="#F95738"/>
<path fill-rule="evenodd" clip-rule="evenodd" d="M12.3333 22.7396C10.4176 22.7396 8.86456 24.2926 8.86456 26.2083V28.0403C8.86456 28.0682 8.88478 28.0919 8.91231 28.0964C15.2621 29.1331 21.7379 29.1331 28.0877 28.0964C28.1152 28.0919 28.1354 28.0682 28.1354 28.0403V26.2083C28.1354 24.2926 26.5824 22.7396 24.6666 22.7396H24.1411C24.1005 22.7396 24.0601 22.746 24.0215 22.7586L22.6872 23.1943C19.9664 24.0827 17.0336 24.0827 14.3128 23.1943L12.9785 22.7586C12.9398 22.746 12.8995 22.7396 12.8588 22.7396H12.3333ZM6.55206 26.2083C6.55206 23.0154 9.14042 20.4271 12.3333 20.4271H12.8588C13.1432 20.4271 13.4259 20.472 13.6963 20.5603L15.0306 20.996C17.2849 21.7322 19.715 21.7322 21.9694 20.996L23.3037 20.5603C23.5741 20.472 23.8567 20.4271 24.1411 20.4271H24.6666C27.8595 20.4271 30.4479 23.0154 30.4479 26.2083V28.0403C30.4479 29.2015 29.6063 30.1916 28.4603 30.3787C21.8637 31.4557 15.1362 31.4557 8.53969 30.3787C7.39363 30.1916 6.55206 29.2015 6.55206 28.0403V26.2083Z" fill="#F95738"/>
</svg>
